<!-- Generator: Adobe Illustrator 21.1.0, SVG Export Plug-In  -->
<svg version="1.1"
	 xmlns="http://www.w3.org/2000/svg" xmlns:xlink="http://www.w3.org/1999/xlink" xmlns:a="http://ns.adobe.com/AdobeSVGViewerExtensions/3.0/"
	 x="0px" y="0px" width="50px" height="50px" viewBox="0 0 50 50" style="overflow:scroll;enable-background:new 0 0 50 50;"
	 xml:space="preserve">
<style type="text/css">
	.st0{fill:#FFAA2E;}
	.st1{fill:url(#SVGID_1_);}
	.st2{fill:#FFFFFF;}
	.st3{fill:url(#SVGID_2_);}
</style>
<defs>
</defs>
<g>
	<circle class="st0" cx="25" cy="25" r="25"/>
	<linearGradient id="SVGID_1_" gradientUnits="userSpaceOnUse" x1="25" y1="0" x2="25" y2="50">
		<stop  offset="0" style="stop-color:#FFCD2E"/>
		<stop  offset="1" style="stop-color:#F9942E"/>
	</linearGradient>
	<path class="st1" d="M25,0.3c13.6,0,24.8,11.1,24.8,24.8S38.6,49.8,25,49.8S0.3,38.6,0.3,25S11.4,0.3,25,0.3 M25,0
		C11.2,0,0,11.2,0,25s11.2,25,25,25s25-11.2,25-25S38.8,0,25,0L25,0z"/>
</g>
<polygon class="st2" points="14.3,25 28.2,11 31.7,14.5 21.3,25 31.7,35.5 28.2,39 "/>
</svg>
